<svg xmlns="http://www.w3.org/2000/svg" viewBox="0 0 152.44 140.79"><defs><style>.cls-1{fill:#122638;}.cls-2{fill:#e49427;}.cls-3{fill:#152738;}.cls-4{fill:#162738;}.cls-5{fill:#162839;}.cls-6{fill:#1b2b3a;}.cls-7{fill:#1a232c;}.cls-8{fill:#2b353e;}.cls-9{fill:#e2952b;}.cls-10{fill:#0c121b;}.cls-11{fill:#4b5159;}.cls-12{fill:#474d55;}.cls-13{fill:#0d1925;}</style></defs><g id="Layer_2" data-name="Layer 2"><g id="Layer_1-2" data-name="Layer 1"><path class="cls-1" d="M81.56,96.4c2.75,0,5.51,0,8.26,0q11.69,0,23.38,0c.69,0,.93-.12.92-.87q0-34.6,0-69.21a1.76,1.76,0,0,0-.67-1.32q-7.09-7.29-14.17-14.59a1.79,1.79,0,0,1-.2-.28c.1-.06.19-.16.09-.26s-.21,0-.3.06a.12.12,0,0,1-.1-.13l.06,0,0-.06-.05.06-.12-.12c.08-.11,0-.13-.06-.06a1.14,1.14,0,0,1-.11-.11c.08-.12,0-.14-.07-.07s-.09,0-.1-.1,0-.15-.07-.07a.1.1,0,0,1-.09-.08c.09-.27,0-.38-.29-.29a.11.11,0,0,1-.06-.07c.07-.13,0-.16-.09-.1s-.07,0-.08-.08,0-.16-.1-.09a.08.08,0,0,1-.07-.08c.06-.12,0-.16-.1-.1a.11.11,0,0,1-.07-.06c.1-.2,0-.32-.15-.44a5,5,0,0,0-4.49-.93c-.05,0-.07.15-.1.23H89.91c-.16-.56-.62-.32-1-.32h-44c-.32,0-.79-.24-.95.32H42.77c-.07-.42-.4-.31-.67-.33s-.78.08-1.16-.17c-.62-.41-.81-.09-.77.52h0c-.66.2-.34.74-.34,1.1q0,43.16,0,86.3c0,.29,0,.58,0,.87-.09,1.27-.06,1.3,1.22,1.3H72.49c1.2,0,1.42.22,1.41,1.42a34.64,34.64,0,0,1-.17,5.19c-.93-.45-1.77.2-2.68.2q-16.3,0-32.61,0a13.35,13.35,0,0,1-2.82-.35,1.13,1.13,0,0,0-.85-.35h0c0-.2,0-.44-.17-.55A4,4,0,0,1,33,99.52c0-.58,0-1.16,0-1.74V16.28c0-3.68,0-7.36,0-11,0-.6.45-1.17.06-1.77a4.87,4.87,0,0,1,5-3.47H97.17a5.76,5.76,0,0,1,4.36,1.79l17.85,18.52a1.59,1.59,0,0,1,.15.21l-.06.06,0-.06a1.83,1.83,0,0,1,.13.16l0,0,0,0,.17.17,0,0,0,0L120,21c-.2.55.33.54.57.75h0c.92,3.05.48,6.18.49,9.27q.06,29.69,0,59.37c0,2.86,0,5.73,0,8.6,0,.53-.43,1,0,1.58a4.5,4.5,0,0,1-3.82,3.13,1.05,1.05,0,0,0-.75-.14c-12.49-.14-25,.3-37.46-.23a1.15,1.15,0,0,1-.23-.72c0-1.67,0-3.34,0-5a.86.86,0,0,1,.37-.82c.12.07.12,0,.12-.1l0,0,0,0c.23,0,.46,0,.69,0h33.38l.67,0a1.39,1.39,0,0,0-.91-.13H82.57C82.23,96.53,81.87,96.64,81.56,96.4Zm32.73-.1.08,0V26h-.08Z"/><path class="cls-2" d="M88,66.42c.51-1.77,1-3.54,1.52-5.31l5.13-18c.26-.89.53-1.78.75-2.68a.74.74,0,0,1,.84-.64c3,0,6,0,9,0,.66,0,.75.18.57.79Q102.26,52,98.84,63.39q-3.15,10.44-6.28,20.88a.93.93,0,0,1-1.08.8c-2.14,0-4.28,0-6.43,0A1,1,0,0,1,84,84.27Q80.51,73.43,77,62.6c-.16-.49-.34-1-.6-1.68-1,3.12-1.94,6-2.87,8.94Q71.2,77.18,68.89,84.5a.69.69,0,0,1-.81.56c-2.26,0-4.52,0-6.78,0-.55,0-.75-.19-.9-.69Q56.71,72.07,53,59.76q-2.8-9.27-5.64-18.52c-.07-.22-.12-.45-.2-.67-.21-.57,0-.74.58-.74,3,0,6,0,9,0a.8.8,0,0,1,.91.7Q60.19,49.77,62.81,59c.71,2.5,1.46,5,2.25,7.7.44-1.31.84-2.42,1.19-3.54l5.3-16.73c.41-1.31.42-1.31,1.76-1.31,2.23,0,4.46,0,6.69,0a1.08,1.08,0,0,1,1.23.89q3.12,9.94,6.29,19.87a5.38,5.38,0,0,0,.24.55Z"/><path class="cls-3" d="M9.81,133.14c1-3,1.93-5.83,2.89-8.67.74-2.19,1.51-4.37,2.24-6.57.16-.49.38-.7.91-.67a20.66,20.66,0,0,0,2.61,0,1.19,1.19,0,0,1,1.44,1c1.5,4.72,3.06,9.41,4.6,14.12.07.22.15.43.28.82.7-2.37,1.33-4.58,2-6.78.85-2.83,1.74-5.64,2.56-8.47a.8.8,0,0,1,1-.7c1.22,0,2.44,0,3.65,0,.64,0,.71.14.53.73-1.51,4.76-3,9.53-4.47,14.3-.78,2.48-1.6,5-2.35,7.45a.81.81,0,0,1-1,.69q-1.74-.07-3.48,0c-.59,0-.83-.15-1-.73-1.51-4.69-3.06-9.36-4.6-14-.06-.19-.13-.38-.27-.76-.29.79-.54,1.41-.75,2-1.46,4.3-2.93,8.59-4.36,12.9a.74.74,0,0,1-.87.59c-1.24,0-2.49,0-3.73,0-.48,0-.64-.17-.77-.58Q3.68,129.47.52,119.13c-.18-.6-.74-1.34-.43-1.76s1.19-.1,1.82-.12c.87,0,1.74,0,2.61,0a.7.7,0,0,1,.85.59c1.38,4.83,2.79,9.65,4.19,14.47Z"/><path class="cls-3" d="M94.08,128.84c0-3.6,0-7.19,0-10.78,0-.64.14-.85.81-.83,3.32.1,6.66-.17,10,.16a10.53,10.53,0,0,1,9.59,9.53,13.47,13.47,0,0,1-1,7.29c-1.8,4-5.16,5.84-9.36,6.1-3.14.2-6.31,0-9.47.08-.68,0-.57-.39-.57-.78V128.84Zm4.54,0h0c0,2.23,0,4.46,0,6.69,0,.51.08.73.65.71,1.42,0,2.85.05,4.26,0a6.18,6.18,0,0,0,5.58-3.65,8.77,8.77,0,0,0,.8-4.13c-.14-4.15-2.8-6.81-6.92-6.92-1.22,0-2.44,0-3.66,0-.58,0-.72.19-.71.75C98.64,124.39,98.62,126.6,98.62,128.8Z"/><path class="cls-3" d="M75.29,125.6v-7.5c0-1.19,0-1.19,1.2-1.18.87,0,1.74,0,2.61,0,.66,0,.74.25.74.81,0,2.17,0,4.34,0,6.52q0,7.68,0,15.38c0,.58-.1.82-.74.78a28,28,0,0,0-3,0c-.61,0-.84-.15-.76-.76a10.66,10.66,0,0,0,0-1.29,6.73,6.73,0,0,1-3.8,2.27,8.15,8.15,0,0,1-9.8-7.38,10.17,10.17,0,0,1,1.18-5.95c2.65-4.68,9.24-5.24,12.1-1.84C75,125.49,75.12,125.51,75.29,125.6Zm.06,6.41a4.61,4.61,0,0,0-4.63-4.81,4.84,4.84,0,0,0,0,9.66A4.57,4.57,0,0,0,75.35,132Z"/><path class="cls-4" d="M45,133.24c-1.94,0-3.88,0-5.82,0-.48,0-.55.09-.43.59.77,3,4.66,4.33,7.42,2.51.14-.09.28-.2.42-.31,1.18-.93,1.18-.93,2.51-.07l.65.43c1.21.79,1.21.79.21,1.83-3.07,3.17-9.26,3.44-12.66.56a8.81,8.81,0,0,1,8.71-15,8,8,0,0,1,5.51,7.82c0,1.68,0,1.68-1.65,1.67H45Zm-2.12-2.89v0c1.19,0,2.38,0,3.57,0,.7,0,.74-.21.55-.8a4.18,4.18,0,0,0-4.1-2.88,4.39,4.39,0,0,0-4.15,3.11c-.13.47,0,.54.4.54Z"/><path class="cls-4" d="M125.42,140.74c-5.26,0-9-3.66-9-8.83a8.94,8.94,0,1,1,9,8.83ZM120.71,132a4.68,4.68,0,1,0,9.35,0,4.72,4.72,0,0,0-4.74-4.85A4.62,4.62,0,0,0,120.71,132Z"/><path class="cls-5" d="M145.07,140.74a8.51,8.51,0,0,1-8.46-5.81,8.91,8.91,0,0,1,3-10,9.24,9.24,0,0,1,11.59.75c.51.52,1.14,1.12,1.15,1.79s-1,.67-1.53,1.07a1.55,1.55,0,0,1-.38.21,4.12,4.12,0,0,1-1.33.59c-.54,0-.61-.66-1-1a4.55,4.55,0,0,0-7.6,2.88,4.66,4.66,0,0,0,5.78,5.42,3.69,3.69,0,0,0,2.27-1.63c.3-.47.54-.46,1-.22a26.67,26.67,0,0,0,2.39,1.2c.62.26.55.54.26,1A8,8,0,0,1,145.07,140.74Z"/><path class="cls-6" d="M54.49,128.66c0-3.65,0-7.29,0-10.94,0-.66.18-.86.83-.82a21.34,21.34,0,0,0,2.77,0c.7-.05.88.17.88.85,0,4.92,0,9.85,0,14.77,0,2.34,0,4.69,0,7,0,.71-.22.88-.88.84a23.44,23.44,0,0,0-2.78,0c-.63,0-.84-.12-.83-.8,0-3.64,0-7.29,0-10.94Z"/><path class="cls-7" d="M73.73,103.31a34.64,34.64,0,0,0,.17-5.19c0-1.2-.21-1.42-1.41-1.42H41c-1.28,0-1.31,0-1.22-1.3,0-.29,0-.58,0-.87q0-43.14,0-86.3c0-.36-.32-.9.34-1.1-.19.26-.11.56-.11.85q0,43.38,0,86.75c0,1.63,0,1.63,1.65,1.63H72a7.22,7.22,0,0,1,1,0c.58.08,1.09.32,1.1,1,0,1.8,0,3.59,0,5.39a.71.71,0,0,1-.24.54h-.13Z"/><path class="cls-8" d="M121,100.53c-.4-.53,0-1,0-1.58,0-2.87,0-5.74,0-8.6q0-29.68,0-59.37c0-3.09.43-6.22-.49-9.27a5,5,0,0,1,.85,3.11V98.41A4.79,4.79,0,0,1,121,100.53Z"/><path class="cls-9" d="M84.33,137.83a2.65,2.65,0,0,1,2.75-2.71,2.88,2.88,0,0,1,2.77,2.78A2.82,2.82,0,0,1,87,140.66,2.73,2.73,0,0,1,84.33,137.83Z"/><path class="cls-10" d="M33.07,3.48c.39.6-.07,1.17-.06,1.77,0,3.67,0,7.35,0,11v81.5c0,.58,0,1.16,0,1.74l-.17,0c0-3.19-.06-6.37-.06-9.56V5.45A4.92,4.92,0,0,1,33.07,3.48Z"/><path class="cls-7" d="M44,7.11c.16-.56.63-.32.95-.32H89c.33,0,.79-.24,1,.32l-.52,0H44.51Z"/><path class="cls-11" d="M79,103.29c12.48.53,25,.09,37.46.23a1.05,1.05,0,0,1,.75.14,3.5,3.5,0,0,1-1.2.14q-17.34,0-34.66,0C80.56,103.79,79.65,104.1,79,103.29Z"/><path class="cls-7" d="M35.62,103.14a13.35,13.35,0,0,0,2.82.35q16.31,0,32.61,0c.91,0,1.75-.65,2.68-.2h0a.57.57,0,0,0,0,.13.39.39,0,0,1-.33.22l-25.26,0-11.11,0-.34,0a.48.48,0,0,0-.53-.15l-.51-.19Z"/><path class="cls-12" d="M37,103.66l11.11,0,25.26,0c-.25.21-.55.14-.84.14l-34.24,0A3.5,3.5,0,0,1,37,103.66Z"/><path class="cls-13" d="M81.56,96.4c.31.24.67.13,1,.13h30.51a1.39,1.39,0,0,1,.91.13l-.67,0H79.94c-.23,0-.46,0-.69,0a.27.27,0,0,1,.32-.15c.38,0,.77.14,1.12-.11Z"/><path class="cls-7" d="M92.52,7.11c0-.08,0-.2.1-.23a5,5,0,0,1,4.49.93c.11.12.25.24.15.44a3,3,0,0,0-3-1.12A17.85,17.85,0,0,1,92.52,7.11Z"/><path class="cls-12" d="M32.87,99.48l.17,0a4,4,0,0,0,1.56,2.72c.18.11.16.35.17.55A4.27,4.27,0,0,1,32.87,99.48Z"/><path class="cls-7" d="M40.17,7.13c0-.61.15-.93.77-.52.38.25.77.14,1.16.17s.6-.09.67.33Z"/><path class="cls-12" d="M35.62,103.14l0,.16a1.61,1.61,0,0,1-.88-.51A1.13,1.13,0,0,1,35.62,103.14Z"/><path class="cls-8" d="M120.55,21.72c-.24-.21-.77-.2-.57-.75A1.52,1.52,0,0,1,120.55,21.72Z"/><path class="cls-1" d="M80.69,96.4c-.35.25-.74.1-1.12.11C79.92,96.25,80.31,96.38,80.69,96.4Z"/><path class="cls-7" d="M98.88,9.9c.09-.08.21-.16.3-.06s0,.2-.09.26Z"/><path class="cls-12" d="M36.16,103.49a.48.48,0,0,1,.53.15A.6.6,0,0,1,36.16,103.49Z"/><path class="cls-7" d="M97.83,8.83c.29-.09.38,0,.29.29Z"/><polygon class="cls-8" points="119.83 20.86 119.79 20.9 119.82 20.86 119.83 20.86"/><polygon class="cls-8" points="119.66 20.69 119.62 20.72 119.65 20.68 119.66 20.69"/><path class="cls-1" d="M73.73,103.45a.57.57,0,0,1,0-.13h.12C73.87,103.41,73.82,103.45,73.73,103.45Z"/><path class="cls-8" d="M119.52,20.52l0,.06.06-.06Z"/><path class="cls-7" d="M98.74,9.73l.05-.06,0,.06-.06,0Z"/><path class="cls-7" d="M98.56,9.55c.11-.07.14-.05.06.06Z"/><path class="cls-7" d="M98.38,9.37c.12-.07.15,0,.07.07Z"/><path class="cls-7" d="M98.21,9.2c.12-.08.14,0,.07.07Z"/><path class="cls-7" d="M97.68,8.66c.13-.06.16,0,.09.1A.22.22,0,0,1,97.68,8.66Z"/><path class="cls-7" d="M97.5,8.49c.13-.07.16,0,.1.09A.18.18,0,0,1,97.5,8.49Z"/><path class="cls-7" d="M97.33,8.31c.13-.06.16,0,.1.1A.17.17,0,0,1,97.33,8.31Z"/><path class="cls-13" d="M79.26,96.65c0,.09,0,.17-.12.1A.11.11,0,0,1,79.26,96.65Z"/><path class="cls-13" d="M114.29,96.3V26h.08V96.33Z"/></g></g></svg>