<svg xmlns="http://www.w3.org/2000/svg" viewBox="0 0 276.94 55.02"><defs><style>.cls-1{fill:#fff;}</style></defs><g id="Layer_2" data-name="Layer 2"><g id="Layer_1-2" data-name="Layer 1"><path class="cls-1" d="M75.61,33.58c1.4-4.21,2.73-8.23,4.08-12.25,1-3.09,2.13-6.16,3.15-9.26.23-.69.54-1,1.29-1a28.24,28.24,0,0,0,3.68,0,1.7,1.7,0,0,1,2,1.43C92,19.2,94.17,25.83,96.34,32.48c.1.3.21.61.4,1.15,1-3.34,1.88-6.46,2.81-9.57,1.2-4,2.45-7.95,3.6-11.95a1.14,1.14,0,0,1,1.36-1c1.71.05,3.43.06,5.15,0,.9,0,1,.2.74,1-2.13,6.73-4.21,13.46-6.31,20.19-1.1,3.51-2.25,7-3.31,10.51a1.15,1.15,0,0,1-1.36,1c-1.63-.06-3.27-.07-4.91,0a1.21,1.21,0,0,1-1.44-1C90.94,36.16,88.75,29.57,86.58,23c-.09-.26-.2-.53-.39-1.06-.41,1.11-.76,2-1.06,2.87C83.07,30.84,81,36.9,79,43a1,1,0,0,1-1.22.83c-1.76,0-3.52-.06-5.28,0-.68,0-.9-.25-1.08-.83-3-9.73-6-19.45-8.9-29.19-.26-.84-1-1.89-.61-2.48s1.68-.15,2.57-.17c1.23,0,2.46,0,3.68,0a1,1,0,0,1,1.2.85c2,6.81,3.94,13.61,5.91,20.42Z"/><path class="cls-1" d="M194.57,27.5c0-5.07,0-10.14,0-15.21,0-.9.19-1.2,1.14-1.17,4.69.15,9.4-.24,14.09.23a14.87,14.87,0,0,1,13.54,13.44,19.28,19.28,0,0,1-1.38,10.3c-2.55,5.68-7.29,8.24-13.22,8.62-4.44.28-8.91,0-13.36.1-1,0-.81-.54-.81-1.09V27.5Zm6.39-.05h0c0,3.15,0,6.3,0,9.45,0,.71.12,1,.92,1,2-.06,4,.07,6-.06a8.73,8.73,0,0,0,7.88-5.15,12.34,12.34,0,0,0,1.13-5.83c-.2-5.86-3.95-9.62-9.78-9.77-1.71,0-3.43,0-5.15,0-.83,0-1,.26-1,1.05C201,21.23,201,24.34,201,27.45Z"/><path class="cls-1" d="M168,22.94V12.34c0-1.67,0-1.67,1.7-1.66,1.23,0,2.46.06,3.68,0,.93-.06,1.05.34,1,1.13,0,3.07,0,6.14,0,9.2,0,7.24,0,14.48,0,21.72,0,.82-.15,1.15-1.05,1.1a40.93,40.93,0,0,0-4.29,0c-.86,0-1.18-.22-1.07-1.08a15.27,15.27,0,0,0,0-1.82,9.5,9.5,0,0,1-5.35,3.2,11.5,11.5,0,0,1-13.84-10.41,14.26,14.26,0,0,1,1.67-8.4c3.74-6.61,13-7.39,17.07-2.6C167.68,22.79,167.8,22.81,168,22.94Zm.09,9a6.5,6.5,0,0,0-6.53-6.79,6.64,6.64,0,0,0-6.5,6.63,6.65,6.65,0,0,0,6.47,7C165.39,38.84,168.09,36,168.12,32Z"/><path class="cls-1" d="M125.26,33.72c-2.74,0-5.48,0-8.22,0-.68,0-.79.12-.61.82,1.09,4.23,6.58,6.11,10.47,3.56l.59-.44c1.68-1.32,1.68-1.33,3.55-.1l.92.6c1.7,1.12,1.7,1.12.29,2.58-4.33,4.48-13.06,4.87-17.87.79a12.85,12.85,0,0,1-1.86-17.17c3.06-4.07,8.93-5.74,14.16-4,4.73,1.54,7.69,5.74,7.77,11,0,2.37,0,2.36-2.32,2.36h-6.87Zm-3-4.07v0c1.67,0,3.35-.05,5,0,1,0,1-.28.78-1.12a5.91,5.91,0,0,0-5.79-4.07,6.21,6.21,0,0,0-5.87,4.39c-.18.66,0,.77.57.76Z"/><path class="cls-1" d="M238.8,44.31c-7.42,0-12.7-5.18-12.68-12.46,0-7,5.45-12.19,12.65-12.18s12.56,5.24,12.57,12.26C251.34,39.11,246.08,44.3,238.8,44.31ZM232.15,32a6.6,6.6,0,1,0,13.2,0,6.65,6.65,0,0,0-6.69-6.83A6.52,6.52,0,0,0,232.15,32Z"/><path class="cls-1" d="M266.54,44.31c-5.72,0-10.31-3.17-12-8.21A12.58,12.58,0,0,1,258.84,22c4.84-3.56,12.3-3.07,16.37,1.07.72.73,1.6,1.58,1.62,2.52s-1.45.95-2.16,1.51a2.13,2.13,0,0,1-.53.3,6.07,6.07,0,0,1-1.89.84c-.76,0-.85-1-1.35-1.39A6.42,6.42,0,0,0,260.17,31c-.73,5,3.43,8.9,8.16,7.66a5.28,5.28,0,0,0,3.21-2.31c.42-.66.75-.64,1.35-.31,1.1.6,2.22,1.2,3.38,1.69.87.37.77.77.36,1.45C274.66,42.41,271,44.32,266.54,44.31Z"/><path class="cls-1" d="M138.68,27.26c0-5.15,0-10.3,0-15.45,0-.93.25-1.21,1.17-1.16a28.49,28.49,0,0,0,3.92,0c1-.07,1.24.24,1.23,1.21,0,7,0,13.89,0,20.84,0,3.31-.05,6.62,0,9.93,0,1-.31,1.23-1.24,1.18a34.18,34.18,0,0,0-3.92,0c-.89.06-1.18-.16-1.17-1.12,0-5.15,0-10.3,0-15.44Z"/><path class="cls-1" d="M180.79,40.2a3.76,3.76,0,0,1,3.89-3.83,4.08,4.08,0,0,1,3.91,3.92,4,4,0,0,1-4,3.9A3.87,3.87,0,0,1,180.79,40.2Z"/><path class="cls-1" d="M24.48,54.72c6.61.28,13.23.05,19.84.12.14,0,.28,0,.4.08a2,2,0,0,1-.64.07H25.72C25.3,55,24.82,55.15,24.48,54.72Z"/><path class="cls-1" d="M1.49,54.64a7.51,7.51,0,0,0,1.5.19H20.26c.48,0,.93-.34,1.42-.1h0v.07a.2.2,0,0,1-.18.12H2.24l-.18,0a.29.29,0,0,0-.28-.08l-.28-.09A.28.28,0,0,0,1.49,54.64Z"/><path class="cls-1" d="M2.24,54.92H21.5c-.13.11-.29.07-.44.07H2.92A1.94,1.94,0,0,1,2.24,54.92Z"/><path class="cls-1" d="M1.78,54.82a.29.29,0,0,1,.28.08A.27.27,0,0,1,1.78,54.82Z"/><path class="cls-1" d="M21.68,54.8v-.07h.07C21.76,54.78,21.73,54.8,21.68,54.8Z"/><path class="cls-1" d="M25.83,51.07l4.37,0H42.59c.37,0,.49-.06.49-.46q0-18.33,0-36.66a.94.94,0,0,0-.35-.7L35.22,5.5l-.11-.15c.06,0,.11-.08,0-.14s-.11,0-.16,0a.06.06,0,0,1,0-.06l0,0,0,0,0,0-.06-.07c0-.06,0-.07,0,0l0-.06c0-.06,0-.07,0,0s-.05,0-.05,0,0-.08,0,0,0,0,0,0,0-.2-.15-.15l0,0c0-.07,0-.08,0,0s0,0,0,0,0-.09,0,0a.07.07,0,0,1-.05,0c0-.07,0-.09,0-.06a0,0,0,0,1,0,0c.05-.1,0-.17-.08-.24a2.61,2.61,0,0,0-2.38-.48s0,.08-.06.12H30.25c-.08-.3-.33-.17-.5-.17H6.43c-.17,0-.42-.13-.5.17H5.28c0-.23-.22-.17-.36-.18s-.41,0-.61-.09-.43,0-.41.28h0c-.35.1-.18.39-.18.58q0,22.86,0,45.72c0,.15,0,.31,0,.46,0,.67,0,.69.65.69H21c.64,0,.76.12.75.75a18,18,0,0,1-.09,2.75c-.49-.24-.94.11-1.42.1H3a7.51,7.51,0,0,1-1.5-.19A.54.54,0,0,0,1,54.46H1c0-.11,0-.24-.09-.3a2.07,2.07,0,0,1-.82-1.44c0-.3,0-.61,0-.92V8.62c0-1.94,0-3.89,0-5.84,0-.31.23-.62,0-.93A2.6,2.6,0,0,1,2.79,0H34.1a3,3,0,0,1,2.31,1l9.45,9.81a.44.44,0,0,1,.08.11l0,0,0,0L46,11l0,0,0,0,.09.09,0,0,0,0,.08.06c-.1.29.18.29.3.4h0a16.88,16.88,0,0,1,.26,4.91q0,15.73,0,31.45c0,1.52,0,3,0,4.56,0,.28-.23.56,0,.84a2.39,2.39,0,0,1-2,1.66c-.12-.11-.26-.08-.4-.08-6.61-.07-13.23.16-19.84-.12a.58.58,0,0,1-.13-.38c0-.88,0-1.77,0-2.65a.47.47,0,0,1,.19-.44c.07,0,.07,0,.07,0v0h0l.37,0H42.65l.36,0a.81.81,0,0,0-.49-.07H26.36C26.18,51.14,26,51.2,25.83,51.07Zm17.34,0h0V13.76h0Z"/><path class="cls-1" d="M29.21,35.19,30,32.37q1.36-4.75,2.72-9.51c.13-.47.28-.94.4-1.42a.38.38,0,0,1,.44-.34h4.74c.36,0,.41.09.31.42q-1.85,6-3.65,12.06-1.66,5.54-3.32,11.06a.5.5,0,0,1-.57.43c-1.14,0-2.28,0-3.41,0a.5.5,0,0,1-.58-.43q-1.83-5.74-3.67-11.48l-.32-.89c-.53,1.66-1,3.2-1.52,4.74-.83,2.58-1.66,5.17-2.47,7.76a.36.36,0,0,1-.43.29c-1.2,0-2.4,0-3.6,0-.28,0-.39-.1-.47-.37-1.31-4.35-2.61-8.69-3.93-13q-1.49-4.9-3-9.81a3.58,3.58,0,0,0-.11-.35c-.11-.31,0-.4.31-.4h4.75a.43.43,0,0,1,.48.37l2.76,9.78c.38,1.33.78,2.65,1.2,4.09.23-.7.44-1.29.63-1.88.94-2.95,1.87-5.91,2.8-8.86.22-.7.23-.7.94-.7,1.18,0,2.36,0,3.54,0a.59.59,0,0,1,.66.48c1.09,3.51,2.21,7,3.33,10.52,0,.1.08.19.12.29Z"/><path class="cls-1" d="M21.68,54.73A18,18,0,0,0,21.77,52c0-.63-.11-.75-.75-.75H4.36c-.68,0-.7,0-.65-.69,0-.15,0-.31,0-.46q0-22.86,0-45.72c0-.19-.17-.48.18-.58a.7.7,0,0,0-.06.45v46c0,.86,0,.86.87.86h16a3.37,3.37,0,0,1,.55,0c.31,0,.58.17.59.53,0,.95,0,1.9,0,2.86a.39.39,0,0,1-.13.28Z"/><path class="cls-1" d="M46.74,53.26c-.21-.28,0-.56,0-.84,0-1.52,0-3,0-4.56q0-15.72,0-31.45a16.88,16.88,0,0,0-.26-4.91,2.68,2.68,0,0,1,.45,1.65v39A2.55,2.55,0,0,1,46.74,53.26Z"/><path class="cls-1" d="M.14,1.85c.2.31,0,.62,0,.93,0,2,0,3.9,0,5.84V51.8c0,.31,0,.62,0,.92l-.1,0C0,51,0,49.33,0,47.64V2.89A2.62,2.62,0,0,1,.14,1.85Z"/><path class="cls-1" d="M5.93,3.77c.08-.3.33-.17.5-.17H29.75c.17,0,.42-.13.5.17H5.93Z"/><path class="cls-1" d="M25.83,51.07c.16.13.35.07.53.07H42.52a.81.81,0,0,1,.49.07l-.36,0H25l-.37,0a.14.14,0,0,1,.17-.08c.2,0,.41.07.6-.06Z"/><path class="cls-1" d="M31.63,3.77s0-.11.06-.12a2.61,2.61,0,0,1,2.38.48c.06.07.13.14.08.24a1.6,1.6,0,0,0-1.57-.59C32.27,3.8,32,3.77,31.63,3.77Z"/><path class="cls-1" d="M0,52.7l.1,0A2.07,2.07,0,0,0,1,54.16c.09.06.08.19.09.3A2.28,2.28,0,0,1,0,52.7Z"/><path class="cls-1" d="M3.9,3.78c0-.33.08-.49.41-.28s.41.07.61.09.32,0,.36.18Z"/><path class="cls-1" d="M1.49,54.64a.28.28,0,0,1,0,.09A.87.87,0,0,1,1,54.46.54.54,0,0,1,1.49,54.64Z"/><path class="cls-1" d="M46.48,11.51c-.12-.11-.4-.11-.3-.4A.75.75,0,0,1,46.48,11.51Z"/><path class="cls-1" d="M25.37,51.07c-.19.13-.4,0-.6.06C25,51,25.17,51.06,25.37,51.07Z"/><path class="cls-1" d="M35,5.24s.11-.08.16,0,0,.11,0,.14Z"/><path class="cls-1" d="M34.45,4.68c.15,0,.2,0,.15.15Z"/><polygon class="cls-1" points="46.1 11.05 46.08 11.07 46.1 11.05 46.1 11.05"/><polygon class="cls-1" points="46.01 10.96 45.99 10.98 46.01 10.96 46.01 10.96"/><path class="cls-1" d="M45.94,10.87l0,0,0,0Z"/><path class="cls-1" d="M34.93,5.16l0,0,0,0,0,0Z"/><path class="cls-1" d="M34.83,5.06c.06,0,.08,0,0,0Z"/><path class="cls-1" d="M34.74,5c.06,0,.08,0,0,0A.08.08,0,0,1,34.74,5Z"/><path class="cls-1" d="M34.65,4.87c.06,0,.07,0,0,0A.08.08,0,0,1,34.65,4.87Z"/><path class="cls-1" d="M34.37,4.59c.07,0,.08,0,0,0A.1.1,0,0,1,34.37,4.59Z"/><path class="cls-1" d="M34.28,4.5c.06,0,.08,0,0,0A.07.07,0,0,1,34.28,4.5Z"/><path class="cls-1" d="M34.18,4.4c.07,0,.09,0,0,.06A.1.1,0,0,1,34.18,4.4Z"/><path class="cls-1" d="M24.61,51.2s0,.09-.07,0A.07.07,0,0,1,24.61,51.2Z"/><path class="cls-1" d="M43.17,51V13.76h0V51Z"/></g></g></svg>