<svg xmlns="http://www.w3.org/2000/svg" viewBox="0 0 88.58 103.85"><defs><style>.cls-1{fill:#fff;}.cls-2{fill:#e49427;}</style></defs><g id="Layer_2" data-name="Layer 2"><g id="Layer_1-2" data-name="Layer 1"><path class="cls-1" d="M48.75,96.4c2.76,0,5.51,0,8.26,0q11.7,0,23.39,0c.69,0,.92-.12.92-.87q0-34.6,0-69.21A1.76,1.76,0,0,0,80.65,25q-7.09-7.29-14.17-14.59a2.83,2.83,0,0,1-.2-.28c.1-.06.2-.16.09-.26s-.21,0-.3.06a.12.12,0,0,1-.1-.13l.07,0L66,9.67l0,.06-.12-.12q.12-.16-.06-.06l-.11-.11c.08-.12,0-.14-.07-.07s-.09,0-.09-.1,0-.15-.08-.07a.11.11,0,0,1-.09-.08c.09-.27,0-.38-.28-.29A.1.1,0,0,1,65,8.76c.07-.13,0-.16-.09-.1s-.07,0-.08-.08,0-.16-.09-.09a.1.1,0,0,1-.08-.08c.06-.12,0-.16-.1-.1a.13.13,0,0,1-.07-.06c.11-.2,0-.32-.15-.44a4.94,4.94,0,0,0-4.48-.93c-.06,0-.07.15-.11.23H57.1c-.16-.56-.62-.32-1-.32h-44c-.32,0-.79-.24-.94.32H10c-.08-.42-.41-.31-.68-.33s-.78.08-1.16-.17c-.62-.41-.81-.09-.77.52h0c-.65.2-.33.74-.34,1.1q0,43.16,0,86.3c0,.29,0,.58,0,.87-.09,1.27-.06,1.3,1.22,1.3H39.69c1.19,0,1.42.22,1.41,1.42a34.64,34.64,0,0,1-.18,5.19c-.92-.45-1.77.2-2.68.2q-16.29,0-32.6,0a13.35,13.35,0,0,1-2.82-.35,1.15,1.15,0,0,0-.86-.35H2c0-.2,0-.44-.17-.55A4,4,0,0,1,.24,99.52c0-.58,0-1.16,0-1.74q0-40.76,0-81.5c0-3.68,0-7.36,0-11,0-.6.45-1.17.06-1.77A4.88,4.88,0,0,1,5.27,0h59.1a5.75,5.75,0,0,1,4.35,1.79L86.57,20.31a1.59,1.59,0,0,1,.15.21l0,.06,0-.06.12.16,0,0,0,0,.17.17,0,0,0,0,.15.11c-.2.55.33.54.57.75h0c.91,3.05.47,6.18.48,9.27q.06,29.69,0,59.37c0,2.86,0,5.73,0,8.6,0,.53-.44,1,0,1.58a4.5,4.5,0,0,1-3.82,3.13,1,1,0,0,0-.75-.14c-12.48-.14-25,.3-37.46-.23a1.15,1.15,0,0,1-.23-.72v-5a.85.85,0,0,1,.36-.82c.12.07.12,0,.12-.1l0,0,0,0c.23,0,.46,0,.7,0H80.51l.68,0a1.42,1.42,0,0,0-.92-.13H49.76C49.43,96.53,49.07,96.64,48.75,96.4Zm32.73-.1.09,0V26h-.09Z"/><path class="cls-2" d="M55.14,66.42q.77-2.65,1.52-5.31,2.56-9,5.14-18c.25-.89.52-1.78.75-2.68a.72.72,0,0,1,.83-.64c3,0,6,0,9,0,.66,0,.76.18.57.79Q69.44,52,66,63.39q-3.15,10.44-6.28,20.88a.92.92,0,0,1-1.07.8c-2.15,0-4.29,0-6.44,0a1,1,0,0,1-1.09-.81Q47.72,73.43,44.22,62.6c-.16-.49-.34-1-.59-1.68-1,3.12-2,6-2.88,8.94-1.56,4.88-3.13,9.76-4.66,14.64a.7.7,0,0,1-.82.56c-2.26,0-4.52,0-6.78,0-.54,0-.75-.19-.9-.69Q23.9,72.07,20.18,59.76c-1.87-6.18-3.77-12.35-5.65-18.52-.07-.22-.11-.45-.19-.67-.21-.57,0-.74.58-.74,3,0,6,0,9,0a.8.8,0,0,1,.91.7Q27.38,49.77,30,59c.71,2.5,1.46,5,2.26,7.7.44-1.31.83-2.42,1.19-3.54q2.65-8.37,5.29-16.73c.42-1.31.42-1.31,1.76-1.31,2.23,0,4.46,0,6.69,0a1.09,1.09,0,0,1,1.24.89q3.1,9.94,6.29,19.87a5.31,5.31,0,0,0,.23.55Z"/><path class="cls-1" d="M40.92,103.31a34.64,34.64,0,0,0,.18-5.19c0-1.2-.22-1.42-1.41-1.42H8.22c-1.28,0-1.31,0-1.22-1.3,0-.29,0-.58,0-.87Q7,51.39,7,8.23c0-.36-.31-.9.34-1.1-.19.26-.11.56-.11.85q0,43.38,0,86.75c0,1.63,0,1.63,1.66,1.63H39.15a7.2,7.2,0,0,1,1,0c.58.08,1.1.32,1.11,1,0,1.8,0,3.59,0,5.39a.75.75,0,0,1-.24.54h-.14Z"/><path class="cls-1" d="M88.23,100.53c-.4-.53,0-1,0-1.58-.06-2.87,0-5.74,0-8.6q0-29.68,0-59.37c0-3.09.43-6.22-.48-9.27a5,5,0,0,1,.84,3.11q0,30.63,0,61.25V98.41A4.79,4.79,0,0,1,88.23,100.53Z"/><path class="cls-1" d="M.26,3.48C.65,4.08.19,4.65.2,5.25c0,3.67,0,7.35,0,11q0,40.76,0,81.5c0,.58,0,1.16,0,1.74l-.17,0C0,96.29,0,93.11,0,89.92Q0,47.7,0,5.45A4.91,4.91,0,0,1,.26,3.48Z"/><path class="cls-1" d="M11.19,7.11c.15-.56.62-.32.94-.32h44c.33,0,.79-.24,1,.32-.17,0-.34,0-.52,0H11.7Z"/><path class="cls-1" d="M46.2,103.29c12.49.53,25,.09,37.46.23a1,1,0,0,1,.75.14,3.47,3.47,0,0,1-1.2.14q-17.33,0-34.66,0C47.76,103.79,46.85,104.1,46.2,103.29Z"/><path class="cls-1" d="M2.82,103.14a13.35,13.35,0,0,0,2.82.35q16.31,0,32.6,0c.91,0,1.76-.65,2.68-.2h0s0,.09,0,.13a.38.38,0,0,1-.33.22l-25.26,0-11.11,0-.34,0a.47.47,0,0,0-.52-.15l-.52-.19A.88.88,0,0,1,2.82,103.14Z"/><path class="cls-1" d="M4.22,103.66l11.11,0,25.26,0c-.25.21-.55.14-.83.14l-34.25,0A3.52,3.52,0,0,1,4.22,103.66Z"/><path class="cls-1" d="M48.75,96.4c.32.24.68.13,1,.13H80.27a1.42,1.42,0,0,1,.92.13l-.68,0H47.14c-.24,0-.47,0-.7,0a.27.27,0,0,1,.32-.15c.38,0,.77.14,1.12-.11Z"/><path class="cls-1" d="M59.71,7.11c0-.08,0-.2.11-.23a4.94,4.94,0,0,1,4.48.93c.11.12.26.24.15.44a3,3,0,0,0-2.94-1.12C60.91,7.18,60.31,7.12,59.71,7.11Z"/><path class="cls-1" d="M.07,99.48l.17,0a4,4,0,0,0,1.55,2.72c.18.11.16.35.17.55A4.26,4.26,0,0,1,.07,99.48Z"/><path class="cls-1" d="M7.36,7.13c0-.61.15-.93.77-.52.38.25.77.14,1.16.17s.6-.09.68.33Z"/><path class="cls-1" d="M2.82,103.14a.88.88,0,0,0,0,.16,1.61,1.61,0,0,1-.88-.51A1.15,1.15,0,0,1,2.82,103.14Z"/><path class="cls-1" d="M87.74,21.72c-.24-.21-.77-.2-.57-.75A1.41,1.41,0,0,1,87.74,21.72Z"/><path class="cls-1" d="M47.88,96.4c-.35.25-.74.1-1.12.11C47.11,96.25,47.5,96.38,47.88,96.4Z"/><path class="cls-1" d="M66.07,9.9c.09-.08.21-.16.3-.06s0,.2-.09.26Z"/><path class="cls-1" d="M3.36,103.49a.47.47,0,0,1,.52.15A.58.58,0,0,1,3.36,103.49Z"/><path class="cls-1" d="M65,8.83c.28-.09.37,0,.28.29Z"/><polygon class="cls-1" points="87.02 20.86 86.98 20.9 87.02 20.86 87.02 20.86"/><polygon class="cls-1" points="86.85 20.69 86.81 20.72 86.84 20.68 86.85 20.69"/><path class="cls-1" d="M40.92,103.45s0-.09,0-.13h.13C41.06,103.41,41,103.45,40.92,103.45Z"/><path class="cls-1" d="M86.72,20.52l0,.06,0-.06Z"/><path class="cls-1" d="M65.93,9.73l0-.06.06.06-.07,0Z"/><path class="cls-1" d="M65.75,9.55q.18-.11.06.06Z"/><path class="cls-1" d="M65.57,9.37c.12-.07.15,0,.07.07Z"/><path class="cls-1" d="M65.4,9.2c.12-.08.14,0,.08.07A.27.27,0,0,1,65.4,9.2Z"/><path class="cls-1" d="M64.87,8.66c.13-.06.16,0,.09.1A.22.22,0,0,1,64.87,8.66Z"/><path class="cls-1" d="M64.7,8.49c.13-.07.15,0,.09.09A.2.2,0,0,1,64.7,8.49Z"/><path class="cls-1" d="M64.52,8.31c.13-.06.16,0,.1.1A.17.17,0,0,1,64.52,8.31Z"/><path class="cls-1" d="M46.45,96.65c0,.09,0,.17-.12.1A.11.11,0,0,1,46.45,96.65Z"/><path class="cls-1" d="M81.48,96.3V26h.09V96.33Z"/></g></g></svg>